<svg width="834" height="1194" viewBox="0 0 834 1194" fill="none" xmlns="http://www.w3.org/2000/svg">
<rect width="834" height="1194" fill="white"/>
<path d="M276.536 541.75V528.104H331.098V487.188H276.536V419H358.369V432.646H303.807V473.563H344.723V487.188H358.369V528.104H344.723V541.75H276.536Z" fill="black"/>
<path d="M426.563 528.104V473.563H412.917V459.917H426.563V432.646H399.271V473.563H412.917V487.188H399.271V528.104H426.563ZM385.646 541.75V528.104H372.001V432.646H385.646V419H440.188V432.646H453.834V528.104H440.188V541.75H385.646Z" fill="black"/>
<path d="M522.028 528.104V473.563H508.382V459.917H522.028V432.646H494.736V473.563H508.382V487.188H494.736V528.104H522.028ZM481.111 541.75V528.104H467.465V432.646H481.111V419H535.653V432.646H549.299V528.104H535.653V541.75H481.111Z" fill="black"/>
<path d="M277.818 662.491V657.428H282.88V621.949H277.818V616.887H298.089V621.949H293.026V657.428H298.089V662.491H277.818Z" fill="black"/>
<path d="M303.158 662.491V616.887H313.304V621.949H318.367V637.158H313.304V662.491H303.158ZM323.429 662.491V652.345H318.367V637.158H323.429V616.887H333.575V662.491H323.429Z" fill="black"/>
<path d="M348.781 662.491V621.949H338.635V616.887H369.052V621.949H358.906V662.491H348.781Z" fill="black"/>
<path d="M374.112 662.491V616.887H404.529V621.949H384.258V637.158H399.446V642.22H384.258V657.428H404.529V662.491H374.112Z" fill="black"/>
<path d="M429.86 642.22V621.949H419.735V642.22H429.86ZM409.589 662.491V616.887H434.923V621.949H440.006V642.22H434.923V647.283H440.006V662.491H429.86V647.283H419.735V662.491H409.589Z" fill="black"/>
<path d="M445.066 662.491V616.887H455.212V621.949H460.275V637.158H455.212V662.491H445.066ZM465.337 662.491V652.345H460.275V637.158H465.337V616.887H475.483V662.491H465.337Z" fill="black"/>
<path d="M500.814 642.22V621.949H490.689V642.22H500.814ZM480.543 662.491V621.949H485.606V616.887H505.877V621.949H510.96V662.491H500.814V647.283H490.689V662.491H480.543Z" fill="black"/>
<path d="M516.02 662.491V616.887H526.166V657.428H541.354V662.491H516.02Z" fill="black"/>
<path d="M222.063 775.438V770.376H217V765.292H227.146V770.376H237.271V755.167H222.063V750.105H217V734.896H222.063V729.834H242.333V734.896H247.417V739.959H237.271V734.896H227.146V750.105H242.333V755.167H247.417V770.376H242.333V775.438H222.063Z" fill="black"/>
<path d="M252.477 775.438V729.834H282.894V734.896H262.623V750.105H277.81V755.167H262.623V770.376H282.894V775.438H252.477Z" fill="black"/>
<path d="M308.225 755.167V734.896H298.1V755.167H308.225ZM287.954 775.438V729.834H313.287V734.896H318.371V755.167H313.287V760.23H318.371V775.438H308.225V760.23H298.1V775.438H287.954Z" fill="black"/>
<path d="M333.577 775.438V765.292H328.493V755.167H323.431V729.834H333.577V760.23H343.702V729.834H353.848V755.167H348.764V765.292H343.702V775.438H333.577Z" fill="black"/>
<path d="M358.908 775.438V729.834H389.325V734.896H369.054V750.105H384.241V755.167H369.054V770.376H389.325V775.438H358.908Z" fill="black"/>
<path d="M414.656 755.167V734.896H404.531V755.167H414.656ZM394.385 775.438V729.834H419.718V734.896H424.802V755.167H419.718V760.23H424.802V775.438H414.656V760.23H404.531V775.438H394.385Z" fill="black"/>
<path d="M445.066 775.438V729.834H475.483V734.896H455.212V750.105H470.4V755.167H455.212V770.376H475.483V775.438H445.066Z" fill="black"/>
<path d="M500.814 755.167V734.896H490.689V755.167H500.814ZM480.543 775.438V729.834H505.877V734.896H510.96V755.167H505.877V760.23H510.96V775.438H500.814V760.23H490.689V775.438H480.543Z" fill="black"/>
<path d="M536.291 755.167V734.896H526.166V755.167H536.291ZM516.02 775.438V729.834H541.354V734.896H546.437V755.167H541.354V760.23H546.437V775.438H536.291V760.23H526.166V775.438H516.02Z" fill="black"/>
<path d="M571.768 770.376V734.896H561.643V770.376H571.768ZM556.56 775.438V770.376H551.497V734.896H556.56V729.834H576.831V734.896H581.914V770.376H576.831V775.438H556.56Z" fill="black"/>
<path d="M607.245 755.167V734.896H597.12V755.167H607.245ZM586.974 775.438V729.834H612.308V734.896H617.391V755.167H612.308V760.23H617.391V775.438H607.245V760.23H597.12V775.438H586.974Z" fill="black"/>
</svg>
