<svg width="156" height="44" viewBox="0 0 156 44" fill="none" xmlns="http://www.w3.org/2000/svg">
<path d="M16.2105 35.1154V35.6658C14.7132 34.9121 13.4637 34.0296 12.4622 33.0182C11.0343 31.5804 9.93363 29.8847 9.16018 27.9312C8.38673 25.9778 8 23.95 8 21.8478C8 18.7738 8.75858 15.9725 10.2757 13.4439C11.7929 10.9054 13.7711 9.09076 16.2105 8V8.62471C14.9908 9.299 13.9893 10.2212 13.2059 11.3913C12.4226 12.5614 11.8375 14.0438 11.4508 15.8386C11.0641 17.6334 10.8707 19.5076 10.8707 21.461C10.8707 23.5831 11.0343 25.5117 11.3615 27.247C11.6194 28.6155 11.9317 29.7112 12.2986 30.5342C12.6655 31.3672 13.1563 32.1654 13.7711 32.9289C14.3958 33.6925 15.209 34.4213 16.2105 35.1154Z" fill="#241F20"/>
<path d="M41.2989 8.98169L28.0461 27.9312H36.3161C37.5854 27.9312 38.5572 27.6536 39.2314 27.0983C39.9157 26.543 40.5205 25.4175 41.0461 23.7219L41.5369 23.8111L40.585 29.1509H24.164V28.6006L37.1045 10.1865H30.6491C29.5782 10.1865 28.7998 10.3055 28.3139 10.5435C27.8379 10.7715 27.471 11.1087 27.2132 11.5549C26.9653 11.9912 26.7372 12.8142 26.529 14.024H25.9638L26.3803 8.98169H41.2989Z" fill="#241F20"/>
<path d="M44.9092 20.6578C44.8993 22.6807 45.3902 24.2673 46.3818 25.4175C47.3734 26.5678 48.5385 27.1429 49.8772 27.1429C50.7696 27.1429 51.5431 26.9 52.1975 26.4141C52.8619 25.9183 53.4172 25.0754 53.8634 23.8855L54.3245 24.183C54.1163 25.5415 53.5114 26.781 52.5099 27.9015C51.5084 29.0121 50.254 29.5674 48.7468 29.5674C47.1106 29.5674 45.7075 28.9328 44.5374 27.6635C43.3772 26.3843 42.7971 24.6689 42.7971 22.5171C42.7971 20.1868 43.3921 18.3722 44.582 17.0732C45.7819 15.7643 47.2841 15.1098 49.0889 15.1098C50.6159 15.1098 51.8703 15.6155 52.852 16.627C53.8337 17.6285 54.3245 18.9721 54.3245 20.6578H44.9092ZM44.9092 19.7951H51.2158C51.1663 18.9225 51.0621 18.3077 50.9035 17.9507C50.6556 17.3955 50.2837 16.9591 49.7879 16.6418C49.3021 16.3245 48.7914 16.1659 48.2559 16.1659C47.4329 16.1659 46.6941 16.4881 46.0397 17.1327C45.3951 17.7673 45.0183 18.6548 44.9092 19.7951Z" fill="#241F20"/>
<path d="M58.9102 17.8764C60.229 16.0419 61.652 15.1247 63.1791 15.1247C64.5772 15.1247 65.7969 15.7246 66.8381 16.9244C67.8793 18.1144 68.3999 19.7456 68.3999 21.818C68.3999 24.2375 67.5967 26.186 65.9903 27.6635C64.6119 28.9328 63.0749 29.5674 61.3793 29.5674C60.586 29.5674 59.7779 29.4236 58.9548 29.136C58.1417 28.8485 57.3088 28.4171 56.456 27.842V13.7265C56.456 12.1796 56.4163 11.2277 56.337 10.8707C56.2676 10.5137 56.1535 10.2708 55.9949 10.1419C55.8362 10.013 55.6379 9.9485 55.3999 9.9485C55.1223 9.9485 54.7752 10.0278 54.3587 10.1865L54.1505 9.6659L58.2409 8H58.9102V17.8764ZM58.9102 18.8283V26.9793C59.4159 27.4751 59.9365 27.8519 60.472 28.1097C61.0174 28.3576 61.5727 28.4816 62.1379 28.4816C63.0402 28.4816 63.8781 27.9858 64.6516 26.9942C65.435 26.0026 65.8266 24.5598 65.8266 22.6658C65.8266 20.9206 65.435 19.5819 64.6516 18.6498C63.8781 17.7078 62.9956 17.2368 62.004 17.2368C61.4785 17.2368 60.9529 17.3707 60.4274 17.6384C60.0307 17.8367 59.525 18.2334 58.9102 18.8283Z" fill="#241F20"/>
<path d="M73.4169 15.1247V18.1887C74.5572 16.146 75.7273 15.1247 76.9272 15.1247C77.4725 15.1247 77.9237 15.2933 78.2807 15.6304C78.6377 15.9576 78.8162 16.3394 78.8162 16.7757C78.8162 17.1624 78.6872 17.4897 78.4294 17.7574C78.1716 18.0251 77.8642 18.159 77.5072 18.159C77.1602 18.159 76.7685 17.9904 76.3322 17.6533C75.9058 17.3062 75.5885 17.1327 75.3802 17.1327C75.2018 17.1327 75.0084 17.2318 74.8002 17.4302C74.3539 17.8367 73.8928 18.506 73.4169 19.4382V25.9679C73.4169 26.7215 73.5111 27.2917 73.6995 27.6784C73.8284 27.9461 74.0565 28.1692 74.3837 28.3477C74.7109 28.5262 75.1819 28.6155 75.7967 28.6155V29.1509H68.8208V28.6155C69.5149 28.6155 70.0305 28.5064 70.3677 28.2882C70.6156 28.1296 70.7891 27.8767 70.8883 27.5296C70.9379 27.3611 70.9627 26.8801 70.9627 26.0869V20.8066C70.9627 19.22 70.9279 18.278 70.8585 17.9805C70.799 17.6731 70.68 17.45 70.5016 17.3112C70.333 17.1723 70.1198 17.1029 69.862 17.1029C69.5546 17.1029 69.2075 17.1773 68.8208 17.326L68.672 16.7906L72.7922 15.1247H73.4169Z" fill="#241F20"/>
<path d="M86.5615 27.1875C85.1633 28.2684 84.2857 28.8931 83.9287 29.0617C83.3933 29.3096 82.8231 29.4335 82.2182 29.4335C81.2762 29.4335 80.4978 29.1113 79.883 28.4667C79.2781 27.8222 78.9757 26.9743 78.9757 25.9232C78.9757 25.2589 79.1244 24.6837 79.4219 24.1979C79.8285 23.5236 80.5325 22.8889 81.534 22.294C82.5455 21.699 84.2213 20.9751 86.5615 20.1224V19.5869C86.5615 18.2284 86.3433 17.2963 85.907 16.7906C85.4806 16.2849 84.8559 16.032 84.0329 16.032C83.4081 16.032 82.9123 16.2006 82.5455 16.5377C82.1686 16.8749 81.9802 17.2616 81.9802 17.6979L82.01 18.5606C82.01 19.0167 81.891 19.3687 81.653 19.6166C81.4249 19.8645 81.1225 19.9885 80.7457 19.9885C80.3788 19.9885 80.0764 19.8596 79.8384 19.6018C79.6103 19.344 79.4963 18.9919 79.4963 18.5457C79.4963 17.6929 79.9326 16.9096 80.8052 16.1956C81.6778 15.4817 82.9024 15.1247 84.4791 15.1247C85.6888 15.1247 86.6804 15.328 87.4539 15.7345C88.0389 16.0419 88.4703 16.5228 88.7479 17.1773C88.9264 17.6037 89.0157 18.4763 89.0157 19.7951V24.421C89.0157 25.72 89.0405 26.5182 89.09 26.8157C89.1396 27.1033 89.219 27.2966 89.328 27.3958C89.447 27.4949 89.5809 27.5445 89.7296 27.5445C89.8883 27.5445 90.0271 27.5098 90.1461 27.4404C90.3543 27.3115 90.7559 26.9496 91.3509 26.3546V27.1875C90.2403 28.675 89.1793 29.4187 88.1679 29.4187C87.682 29.4187 87.2952 29.2501 87.0077 28.9129C86.7201 28.5758 86.5714 28.0007 86.5615 27.1875ZM86.5615 26.2207V21.0297C85.0641 21.6246 84.0973 22.0461 83.661 22.294C82.8776 22.7303 82.3174 23.1864 81.9802 23.6624C81.6431 24.1384 81.4745 24.659 81.4745 25.2242C81.4745 25.9381 81.6877 26.5331 82.1141 27.0091C82.5405 27.4751 83.0313 27.7081 83.5866 27.7081C84.3403 27.7081 85.3319 27.2123 86.5615 26.2207Z" fill="#241F20"/>
<path d="M95.86 18.0102C97.4565 16.0865 98.9786 15.1247 100.426 15.1247C101.17 15.1247 101.81 15.3131 102.345 15.6899C102.881 16.0568 103.307 16.6666 103.624 17.5194C103.842 18.1144 103.951 19.0266 103.951 20.2562V26.072C103.951 26.9347 104.021 27.5197 104.16 27.8271C104.269 28.075 104.442 28.2684 104.68 28.4072C104.928 28.546 105.379 28.6155 106.034 28.6155V29.1509H99.2959V28.6155H99.5785C100.213 28.6155 100.654 28.5213 100.902 28.3328C101.16 28.1345 101.339 27.847 101.438 27.4702C101.477 27.3214 101.497 26.8554 101.497 26.072V20.4942C101.497 19.2547 101.334 18.3573 101.006 17.802C100.689 17.2368 100.149 16.9542 99.3851 16.9542C98.2051 16.9542 97.0301 17.5987 95.86 18.8878V26.072C95.86 26.9942 95.9145 27.5644 96.0236 27.7825C96.1624 28.0701 96.3508 28.2833 96.5888 28.4221C96.8367 28.551 97.3325 28.6155 98.0762 28.6155V29.1509H91.3383V28.6155H91.6357C92.3299 28.6155 92.7959 28.4419 93.0339 28.0949C93.2818 27.7379 93.4058 27.0636 93.4058 26.072V21.0148C93.4058 19.3787 93.3661 18.3821 93.2868 18.0251C93.2173 17.6681 93.1033 17.4252 92.9447 17.2963C92.7959 17.1674 92.5926 17.1029 92.3348 17.1029C92.0572 17.1029 91.725 17.1773 91.3383 17.326L91.1151 16.7906L95.2204 15.1247H95.86V18.0102Z" fill="#241F20"/>
<path d="M115.522 27.6189C114.857 28.313 114.208 28.8138 113.573 29.1212C112.938 29.4187 112.254 29.5674 111.52 29.5674C110.033 29.5674 108.734 28.9476 107.623 27.7081C106.513 26.4587 105.958 24.8573 105.958 22.9038C105.958 20.9504 106.572 19.1655 107.802 17.5492C109.032 15.9229 110.613 15.1098 112.547 15.1098C113.747 15.1098 114.738 15.4916 115.522 16.2551V13.7414C115.522 12.1846 115.482 11.2277 115.403 10.8707C115.333 10.5137 115.219 10.2708 115.061 10.1419C114.902 10.013 114.704 9.9485 114.466 9.9485C114.208 9.9485 113.866 10.0278 113.439 10.1865L113.246 9.6659L117.307 8H117.976V23.7516C117.976 25.3481 118.011 26.3248 118.08 26.6818C118.159 27.0289 118.278 27.2718 118.437 27.4107C118.606 27.5495 118.799 27.6189 119.017 27.6189C119.285 27.6189 119.642 27.5346 120.088 27.366L120.252 27.8866L116.206 29.5674H115.522V27.6189ZM115.522 26.5777V19.5571C115.462 18.8829 115.284 18.2681 114.986 17.7128C114.689 17.1575 114.292 16.741 113.796 16.4633C113.31 16.1758 112.834 16.032 112.368 16.032C111.496 16.032 110.717 16.4237 110.033 17.207C109.131 18.2383 108.68 19.7456 108.68 21.7288C108.68 23.7318 109.116 25.2688 109.988 26.3397C110.861 27.4007 111.833 27.9312 112.904 27.9312C113.806 27.9312 114.679 27.4801 115.522 26.5777Z" fill="#241F20"/>
<path d="M129.202 15.1247V19.7654H128.711C128.334 18.3077 127.848 17.3161 127.253 16.7906C126.668 16.265 125.919 16.0022 125.007 16.0022C124.313 16.0022 123.753 16.1857 123.326 16.5526C122.9 16.9195 122.687 17.326 122.687 17.7723C122.687 18.3276 122.845 18.8035 123.163 19.2002C123.47 19.6067 124.095 20.0381 125.037 20.4942L127.209 21.5503C129.222 22.532 130.228 23.826 130.228 25.4324C130.228 26.6719 129.757 27.6734 128.815 28.437C127.883 29.1906 126.837 29.5674 125.677 29.5674C124.844 29.5674 123.892 29.4187 122.821 29.1212C122.493 29.022 122.226 28.9724 122.017 28.9724C121.789 28.9724 121.611 29.1013 121.482 29.3592H120.991V24.4953H121.482C121.76 25.8836 122.29 26.9297 123.074 27.6338C123.857 28.3378 124.734 28.6898 125.706 28.6898C126.39 28.6898 126.946 28.4915 127.372 28.0949C127.808 27.6883 128.027 27.2024 128.027 26.6372C128.027 25.953 127.784 25.3779 127.298 24.9118C126.822 24.4458 125.865 23.8558 124.427 23.1418C122.989 22.4278 122.047 21.7833 121.601 21.2082C121.155 20.643 120.932 19.929 120.932 19.0663C120.932 17.9458 121.313 17.0087 122.077 16.2551C122.85 15.5015 123.847 15.1247 125.067 15.1247C125.602 15.1247 126.252 15.2387 127.015 15.4668C127.521 15.6155 127.858 15.6899 128.027 15.6899C128.185 15.6899 128.309 15.6552 128.398 15.5858C128.488 15.5164 128.592 15.3627 128.711 15.1247H129.202Z" fill="#241F20"/>
<path d="M138.881 8.62471V8C140.388 8.7437 141.642 9.62127 142.644 10.6327C144.062 12.0805 145.157 13.7811 145.931 15.7345C146.704 17.6781 147.091 19.7059 147.091 21.818C147.091 24.892 146.332 27.6933 144.815 30.2219C143.308 32.7604 141.33 34.575 138.881 35.6658V35.1154C140.1 34.4312 141.102 33.5041 141.885 32.334C142.678 31.1738 143.263 29.6963 143.64 27.9015C144.027 26.0968 144.22 24.2177 144.22 22.2642C144.22 20.1521 144.057 18.2234 143.73 16.4782C143.482 15.1098 143.169 14.0141 142.792 13.191C142.426 12.368 141.935 11.5747 141.32 10.8112C140.705 10.0477 139.892 9.31883 138.881 8.62471Z" fill="#241F20"/>
<circle cx="48.4051" cy="10.7057" r="1.588" fill="#241F20"/>
</svg>
