<svg width="17" height="16" viewBox="0 0 17 16" fill="none" xmlns="http://www.w3.org/2000/svg">
<path d="M11.4924 2.66699H12.8198C13.1718 2.66699 13.5095 2.80747 13.7584 3.05752C14.0073 3.30756 14.1472 3.6467 14.1472 4.00033V13.3337C14.1472 13.6873 14.0073 14.0264 13.7584 14.2765C13.5095 14.5265 13.1718 14.667 12.8198 14.667H4.85567C4.50364 14.667 4.16602 14.5265 3.91709 14.2765C3.66817 14.0264 3.52832 13.6873 3.52832 13.3337V4.00033C3.52832 3.6467 3.66817 3.30756 3.91709 3.05752C4.16602 2.80747 4.50364 2.66699 4.85567 2.66699H6.18303" stroke="#525b75" stroke-width="1.33333" stroke-linecap="round" stroke-linejoin="round"/>
<path d="M10.8291 1.33301H6.84703C6.48049 1.33301 6.18335 1.63148 6.18335 1.99967V3.33301C6.18335 3.7012 6.48049 3.99967 6.84703 3.99967H10.8291C11.1956 3.99967 11.4928 3.7012 11.4928 3.33301V1.99967C11.4928 1.63148 11.1956 1.33301 10.8291 1.33301Z" stroke="#525b75" stroke-width="1.33333" stroke-linecap="round" stroke-linejoin="round"/>
</svg>
