<svg width="17" height="16" viewBox="0 0 17 16" fill="none" xmlns="http://www.w3.org/2000/svg">
<g clip-path="url(#clip0_216_4439)">
<path d="M10.6302 4.20015C10.5086 4.32477 10.4404 4.49231 10.4404 4.66682C10.4404 4.84132 10.5086 5.00886 10.6302 5.13348L11.692 6.20015C11.8161 6.3223 11.9829 6.39072 12.1566 6.39072C12.3303 6.39072 12.4971 6.3223 12.6212 6.20015L15.1233 3.68682C15.457 4.42761 15.558 5.25297 15.4129 6.05291C15.2678 6.85285 14.8835 7.58938 14.3111 8.16434C13.7387 8.73929 13.0055 9.12537 12.2091 9.27112C11.4128 9.41687 10.5911 9.31537 9.85365 8.98015L5.26765 13.5868C5.00362 13.852 4.64552 14.001 4.27213 14.001C3.89874 14.001 3.54064 13.852 3.27661 13.5868C3.01259 13.3216 2.86426 12.9619 2.86426 12.5868C2.86426 12.2117 3.01259 11.852 3.27661 11.5868L7.86262 6.98015C7.5289 6.23936 7.42786 5.41399 7.57296 4.61405C7.71805 3.81411 8.1024 3.07759 8.67478 2.50263C9.24716 1.92767 9.98038 1.5416 10.7767 1.39584C11.5731 1.25009 12.3947 1.35159 13.1322 1.68682L10.6368 4.19348L10.6302 4.20015Z" stroke="#525b75" stroke-width="1.33333" stroke-linecap="round" stroke-linejoin="round"/>
</g>
<defs>
<clipPath id="clip0_216_4439">
<rect width="15.9283" height="16" fill="white" transform="translate(0.874023)"/>
</clipPath>
</defs>
</svg>
