<svg width="40" height="40" viewBox="0 0 40 40" fill="none" xmlns="http://www.w3.org/2000/svg">
<path d="M20 0C8.93333 0 0 8.93333 0 20C0 31.0667 8.93333 40 20 40C31.0667 40 40 31.0667 40 20C40 8.93333 31.0667 0 20 0Z" fill="black"/>
<path d="M20.39 9C17.2578 9 14.695 12.1894 14.695 16.1191C14.695 20.0488 17.2578 23.2382 20.39 23.2382C23.5223 23.2382 26.085 20.0488 26.085 16.1191C26.085 12.1894 23.5223 9 20.39 9ZM14.4387 23.2382C11.4204 23.3806 9 25.858 9 28.9335V31.7811H31.78V28.9335C31.78 25.858 29.3881 23.3806 26.3413 23.2382C24.8036 24.9752 22.6965 26.0858 20.39 26.0858C18.0835 26.0858 15.9764 24.9752 14.4387 23.2382Z" fill="#F6F6F6"/>
</svg>
