<svg width="17" height="16" viewBox="0 0 17 16" fill="none" xmlns="http://www.w3.org/2000/svg">
<path d="M13.4838 7.33301H4.19234C3.45927 7.33301 2.86499 7.92996 2.86499 8.66634V13.333C2.86499 14.0694 3.45927 14.6663 4.19234 14.6663H13.4838C14.2169 14.6663 14.8112 14.0694 14.8112 13.333V8.66634C14.8112 7.92996 14.2169 7.33301 13.4838 7.33301Z" stroke="#525b75" stroke-width="1.33333" stroke-linecap="round" stroke-linejoin="round"/>
<path d="M5.51953 7.33301V4.66634C5.51953 3.78229 5.86915 2.93444 6.49146 2.30932C7.11378 1.6842 7.95783 1.33301 8.83792 1.33301C9.71801 1.33301 10.5621 1.6842 11.1844 2.30932C11.8067 2.93444 12.1563 3.78229 12.1563 4.66634V7.33301" stroke="#525b75" stroke-width="1.33333" stroke-linecap="round" stroke-linejoin="round"/>
</svg>
