<svg width="14" height="14" viewBox="0 0 14 14" fill="none" xmlns="http://www.w3.org/2000/svg">
<path d="M11.706 2.70513C11.5924 2.75157 10.3798 3.92808 8.36734 5.94054L5.20415 9.0934L3.87798 7.77241C3.14524 7.05 2.47442 6.42045 2.39186 6.374C1.86036 6.10567 1.26178 6.29658 0.998615 6.82294C0.84381 7.13257 0.833489 7.41637 0.972814 7.70018C1.03474 7.83949 1.70555 8.54127 2.8666 9.69713C4.28048 11.1059 4.70361 11.498 4.86358 11.5497C5.12674 11.6322 5.52408 11.5858 5.73564 11.4413C5.98335 11.271 12.769 4.49055 12.9599 4.22222C13.1044 4.01581 13.125 3.94873 13.125 3.64428C13.125 3.34499 13.1044 3.27274 12.9702 3.08182C12.6812 2.67416 12.1498 2.5142 11.706 2.70513Z" fill="#448326"/>
</svg>
