<svg width="14" height="14" viewBox="0 0 14 14" fill="none" xmlns="http://www.w3.org/2000/svg">
<path d="M4.17169 4.9797C3.94853 4.75654 3.94853 4.39473 4.17169 4.17157C4.39485 3.94842 4.75665 3.94842 4.97981 4.17157L9.82854 9.02031C10.0517 9.24346 10.0517 9.60527 9.82854 9.82843C9.60539 10.0516 9.24358 10.0516 9.02042 9.82843L4.17169 4.9797Z" fill="black"/>
<path d="M4.97981 9.82843C4.75665 10.0516 4.39485 10.0516 4.17169 9.82843C3.94853 9.60527 3.94853 9.24346 4.17169 9.02031L9.02042 4.17157C9.24358 3.94842 9.60539 3.94842 9.82854 4.17157C10.0517 4.39473 10.0517 4.75654 9.82854 4.97969L4.97981 9.82843Z" fill="black"/>
</svg>
