<svg width="17" height="16" viewBox="0 0 17 16" fill="none" xmlns="http://www.w3.org/2000/svg">
<g clip-path="url(#clip0_216_4445)">
<path d="M8.83771 10C9.93733 10 10.8287 9.10457 10.8287 8C10.8287 6.89543 9.93733 6 8.83771 6C7.73809 6 6.84668 6.89543 6.84668 8C6.84668 9.10457 7.73809 10 8.83771 10Z" stroke="#525b75" stroke-width="1.33333" stroke-linecap="round" stroke-linejoin="round"/>
<path d="M13.7497 10.0003C13.6614 10.2014 13.635 10.4245 13.6741 10.6407C13.7131 10.857 13.8158 11.0565 13.9688 11.2137L14.0086 11.2537C14.132 11.3775 14.2299 11.5245 14.2967 11.6864C14.3635 11.8483 14.3979 12.0218 14.3979 12.197C14.3979 12.3722 14.3635 12.5457 14.2967 12.7076C14.2299 12.8694 14.132 13.0165 14.0086 13.1403C13.8853 13.2643 13.7389 13.3626 13.5778 13.4297C13.4166 13.4968 13.2439 13.5314 13.0695 13.5314C12.895 13.5314 12.7223 13.4968 12.5612 13.4297C12.4 13.3626 12.2536 13.2643 12.1304 13.1403L12.0906 13.1003C11.9341 12.9466 11.7355 12.8435 11.5202 12.8043C11.3049 12.7651 11.0828 12.7916 10.8827 12.8803C10.6864 12.9648 10.519 13.1052 10.401 13.284C10.2831 13.4629 10.2198 13.6725 10.219 13.887V14.0003C10.219 14.3539 10.0791 14.6931 9.83021 14.9431C9.58128 15.1932 9.24367 15.3337 8.89163 15.3337C8.53959 15.3337 8.20198 15.1932 7.95305 14.9431C7.70412 14.6931 7.56427 14.3539 7.56427 14.0003V13.9403C7.55914 13.7197 7.48803 13.5057 7.3602 13.3261C7.23237 13.1466 7.05373 13.0098 6.8475 12.9337C6.64733 12.8449 6.42528 12.8184 6.20998 12.8577C5.99469 12.8969 5.79603 13 5.63961 13.1537L5.59979 13.1937C5.47651 13.3176 5.33012 13.416 5.16898 13.4831C5.00785 13.5502 4.83512 13.5847 4.66069 13.5847C4.48625 13.5847 4.31353 13.5502 4.15239 13.4831C3.99125 13.416 3.84486 13.3176 3.72158 13.1937C3.59817 13.0698 3.50027 12.9228 3.43347 12.7609C3.36667 12.599 3.33229 12.4255 3.33229 12.2503C3.33229 12.0751 3.36667 11.9016 3.43347 11.7397C3.50027 11.5779 3.59817 11.4308 3.72158 11.307L3.7614 11.267C3.91441 11.1099 4.01704 10.9103 4.05608 10.6941C4.09512 10.4778 4.06876 10.2547 3.98042 10.0537C3.89629 9.85648 3.7566 9.68831 3.57854 9.56986C3.40048 9.45141 3.19183 9.38785 2.97827 9.38699H2.86544C2.5134 9.38699 2.17579 9.24652 1.92686 8.99647C1.67793 8.74642 1.53809 8.40728 1.53809 8.05366C1.53809 7.70004 1.67793 7.3609 1.92686 7.11085C2.17579 6.8608 2.5134 6.72033 2.86544 6.72033H2.92517C3.14484 6.71516 3.35789 6.64374 3.53662 6.51533C3.71534 6.38693 3.85148 6.20748 3.92732 6.00033C4.01567 5.79925 4.04202 5.5762 4.00299 5.35993C3.96395 5.14367 3.86131 4.94411 3.70831 4.78699L3.66849 4.74699C3.54508 4.62316 3.44717 4.47611 3.38037 4.31425C3.31358 4.15238 3.27919 3.97888 3.27919 3.80366C3.27919 3.62844 3.31358 3.45494 3.38037 3.29307C3.44717 3.13121 3.54508 2.98416 3.66849 2.86033C3.79177 2.73636 3.93816 2.63801 4.0993 2.57091C4.26043 2.50381 4.43316 2.46928 4.60759 2.46928C4.78203 2.46928 4.95475 2.50381 5.11589 2.57091C5.27703 2.63801 5.42342 2.73636 5.5467 2.86033L5.58652 2.90033C5.74293 3.05402 5.94159 3.15712 6.15689 3.19633C6.37218 3.23554 6.59423 3.20907 6.79441 3.12033H6.8475C7.0438 3.03582 7.21121 2.8955 7.32913 2.71664C7.44705 2.53778 7.51033 2.32818 7.51118 2.11366V2.00033C7.51118 1.6467 7.65103 1.30757 7.89995 1.05752C8.14888 0.807468 8.4865 0.666992 8.83853 0.666992C9.19057 0.666992 9.52819 0.807468 9.77712 1.05752C10.026 1.30757 10.1659 1.6467 10.1659 2.00033V2.06033C10.1667 2.27485 10.23 2.48444 10.3479 2.6633C10.4659 2.84216 10.6333 2.98248 10.8296 3.06699C11.0297 3.15574 11.2518 3.18221 11.4671 3.143C11.6824 3.10378 11.881 3.00068 12.0375 2.84699L12.0773 2.80699C12.2006 2.68302 12.3469 2.58468 12.5081 2.51758C12.6692 2.45048 12.8419 2.41594 13.0164 2.41594C13.1908 2.41594 13.3635 2.45048 13.5247 2.51758C13.6858 2.58468 13.8322 2.68302 13.9555 2.80699C14.0789 2.93082 14.1768 3.07787 14.2436 3.23974C14.3104 3.4016 14.3448 3.5751 14.3448 3.75033C14.3448 3.92555 14.3104 4.09905 14.2436 4.26091C14.1768 4.42278 14.0789 4.56983 13.9555 4.69366L13.9157 4.73366C13.7627 4.89078 13.66 5.09034 13.621 5.3066C13.582 5.52286 13.6083 5.74592 13.6967 5.94699V6.00033C13.7808 6.19751 13.9205 6.36567 14.0985 6.48412C14.2766 6.60257 14.4852 6.66614 14.6988 6.66699H14.8116C15.1637 6.66699 15.5013 6.80747 15.7502 7.05752C15.9991 7.30757 16.139 7.6467 16.139 8.00033C16.139 8.35395 15.9991 8.69309 15.7502 8.94313C15.5013 9.19318 15.1637 9.33366 14.8116 9.33366H14.7519C14.5383 9.33451 14.3297 9.39808 14.1516 9.51653C13.9736 9.63498 13.8339 9.80315 13.7497 10.0003Z" stroke="#525b75" stroke-width="1.33333" stroke-linecap="round" stroke-linejoin="round"/>
</g>
<defs>
<clipPath id="clip0_216_4445">
<rect width="15.9283" height="16" fill="white" transform="translate(0.874023)"/>
</clipPath>
</defs>
</svg>
