<svg width="17" height="16" viewBox="0 0 17 16" fill="none" xmlns="http://www.w3.org/2000/svg">
<g clip-path="url(#clip0_216_4404)">
<path d="M14.9556 10.5934C14.5333 11.5964 13.873 12.4802 13.0321 13.1676C12.1913 13.855 11.1957 14.325 10.1322 14.5366C9.06881 14.7481 7.96998 14.6948 6.9318 14.3813C5.89363 14.0677 4.94772 13.5034 4.17679 12.7378C3.40586 11.9722 2.83337 11.0286 2.50938 9.98935C2.18539 8.95015 2.11975 7.84704 2.31822 6.77647C2.51668 5.70591 2.9732 4.70047 3.64786 3.84807C4.32252 2.99567 5.19478 2.32226 6.18839 1.88672" stroke="#525b75" stroke-width="1.33333" stroke-linecap="round" stroke-linejoin="round"/>
<path d="M15.4795 7.99967C15.4795 7.1242 15.3079 6.25729 14.9744 5.44845C14.6408 4.63961 14.152 3.90469 13.5357 3.28563C12.9194 2.66657 12.1878 2.17551 11.3826 1.84048C10.5773 1.50545 9.71433 1.33301 8.84277 1.33301V7.99967H15.4795Z" stroke="#525b75" stroke-width="1.33333" stroke-linecap="round" stroke-linejoin="round"/>
</g>
<defs>
<clipPath id="clip0_216_4404">
<rect width="15.9283" height="16" fill="white" transform="translate(0.878906)"/>
</clipPath>
</defs>
</svg>
