<svg width="17" height="16" viewBox="0 0 17 16" fill="none" xmlns="http://www.w3.org/2000/svg">
<g clip-path="url(#clip0_216_4417)">
<path d="M12.1569 14V12.6667C12.1569 11.9594 11.8772 11.2811 11.3794 10.781C10.8815 10.281 10.2063 10 9.50221 10H4.19279C3.48872 10 2.81349 10.281 2.31563 10.781C1.81778 11.2811 1.53809 11.9594 1.53809 12.6667V14" stroke="#525b75" stroke-width="1.33333" stroke-linecap="round" stroke-linejoin="round"/>
<path d="M6.84709 7.33333C8.31325 7.33333 9.5018 6.13943 9.5018 4.66667C9.5018 3.19391 8.31325 2 6.84709 2C5.38094 2 4.19238 3.19391 4.19238 4.66667C4.19238 6.13943 5.38094 7.33333 6.84709 7.33333Z" stroke="#525b75" stroke-width="1.33333" stroke-linecap="round" stroke-linejoin="round"/>
<path d="M16.1385 14.0002V12.6669C16.1381 12.0761 15.9423 11.5021 15.5819 11.0351C15.2215 10.5682 14.717 10.2346 14.1475 10.0869" stroke="#525b75" stroke-width="1.33333" stroke-linecap="round" stroke-linejoin="round"/>
<path d="M11.4932 2.08691C12.0642 2.23378 12.5703 2.56738 12.9318 3.03512C13.2932 3.50286 13.4894 4.07813 13.4894 4.67025C13.4894 5.26236 13.2932 5.83763 12.9318 6.30537C12.5703 6.77311 12.0642 7.10671 11.4932 7.25358" stroke="#525b75" stroke-width="1.33333" stroke-linecap="round" stroke-linejoin="round"/>
</g>
<defs>
<clipPath id="clip0_216_4417">
<rect width="15.9283" height="16" fill="white" transform="translate(0.874023)"/>
</clipPath>
</defs>
</svg>
