<svg width="14" height="14" viewBox="0 0 14 14" fill="none" xmlns="http://www.w3.org/2000/svg">
<path d="M2.75729 3.96954C2.42255 3.63481 2.42255 3.09209 2.75729 2.75736C3.09202 2.42262 3.63474 2.42262 3.96947 2.75736L11.2426 10.0305C11.5773 10.3652 11.5773 10.9079 11.2426 11.2426C10.9078 11.5774 10.3651 11.5774 10.0304 11.2426L2.75729 3.96954Z" fill="#C63A3A"/>
<path d="M3.96947 11.2426C3.63474 11.5774 3.09202 11.5774 2.75729 11.2426C2.42255 10.9079 2.42255 10.3652 2.75729 10.0305L10.0304 2.75736C10.3651 2.42262 10.9078 2.42262 11.2426 2.75736C11.5773 3.09209 11.5773 3.63481 11.2426 3.96954L3.96947 11.2426Z" fill="#C63A3A"/>
</svg>
