<svg width="50" height="50" viewBox="0 0 50 50" fill="none" xmlns="http://www.w3.org/2000/svg">
<path opacity="0.988" fill-rule="evenodd" clip-rule="evenodd" d="M11.5723 2.00212C18.0559 1.9543 24.5337 2.00313 31.0059 2.1486C31.136 2.21371 31.2663 2.27881 31.3965 2.34391C35.3841 6.33154 39.3718 10.3192 43.3594 14.3068C43.457 14.5021 43.5547 14.6974 43.6523 14.8927C43.7175 24.1701 43.7175 33.4474 43.6523 42.7248C43.0269 45.629 41.2527 47.338 38.3301 47.8517C28.1413 47.9169 17.9524 47.9169 7.76368 47.8517C6.43501 47.3927 5.93045 46.465 6.25 45.0685C6.49414 44.4338 6.9336 43.9943 7.56836 43.7502C17.5293 43.7176 27.4902 43.685 37.4512 43.6525C38.5073 43.5405 39.1746 42.9709 39.4531 41.9435C39.502 34.1962 39.5183 26.4488 39.502 18.7013C35.8234 18.7176 32.145 18.7013 28.4668 18.6525C27.6964 18.432 27.2244 17.9274 27.0508 17.1388C27.002 13.4931 26.9856 9.84733 27.002 6.20134C22.1516 6.18506 17.3014 6.20134 12.4512 6.25016C11.395 6.36218 10.7277 6.93184 10.4492 7.95915C10.4167 11.019 10.3841 14.079 10.3516 17.1388C9.92041 18.4374 9.02525 18.942 7.66602 18.6525C6.9336 18.4409 6.4616 17.9689 6.25 17.2365C6.15555 13.7171 6.1881 10.2014 6.34766 6.68962C7.16075 4.07976 8.90228 2.51726 11.5723 2.00212ZM31.2012 8.25212C33.2974 10.2995 35.3808 12.3666 37.4512 14.4533C35.3681 14.5021 33.2848 14.5184 31.2012 14.5021C31.2012 12.4188 31.2012 10.3354 31.2012 8.25212Z" fill="#004DFF"/>
<path opacity="0.966" fill-rule="evenodd" clip-rule="evenodd" d="M18.3105 22.8025C18.9976 22.7545 19.616 22.9335 20.166 23.3397C22.2981 25.4718 24.4304 27.604 26.5625 29.7361C27.2998 30.7709 27.2673 31.78 26.4648 32.7635C24.2974 34.9635 22.1001 37.1282 19.873 39.2576C18.7027 39.8397 17.7099 39.628 16.8945 38.6229C16.4032 37.7031 16.4683 36.8242 17.0898 35.9861C17.9524 35.1235 18.8151 34.2608 19.6777 33.3983C14.3718 33.3657 9.06575 33.3331 3.75977 33.3006C2.241 32.8515 1.70389 31.8587 2.14844 30.3221C2.45933 29.621 2.99644 29.2141 3.75977 29.1014C9.06575 29.0689 14.3718 29.0362 19.6777 29.0037C18.8151 28.1411 17.9524 27.2784 17.0898 26.4158C16.3737 25.4393 16.3737 24.4627 17.0898 23.4861C17.455 23.1657 17.8618 22.9378 18.3105 22.8025Z" fill="#004DFF"/>
</svg>
