<svg width="17" height="16" viewBox="0 0 17 16" fill="none" xmlns="http://www.w3.org/2000/svg">
<path d="M10.17 1.33301H4.86056C4.50852 1.33301 4.1709 1.47348 3.92198 1.72353C3.67305 1.97358 3.5332 2.31272 3.5332 2.66634V13.333C3.5332 13.6866 3.67305 14.0258 3.92198 14.2758C4.1709 14.5259 4.50852 14.6663 4.86056 14.6663H12.8247C13.1767 14.6663 13.5143 14.5259 13.7633 14.2758C14.0122 14.0258 14.152 13.6866 14.152 13.333V5.33301L10.17 1.33301Z" stroke="#525b75" stroke-width="1.33333" stroke-linecap="round" stroke-linejoin="round"/>
<path d="M10.1709 1.33301V5.33301H14.153" stroke="#525b75" stroke-width="1.33333" stroke-linecap="round" stroke-linejoin="round"/>
<path d="M11.4976 8.66699H6.18823" stroke="#525b75" stroke-width="1.33333" stroke-linecap="round" stroke-linejoin="round"/>
<path d="M11.4976 11.333H6.18823" stroke="#525b75" stroke-width="1.33333" stroke-linecap="round" stroke-linejoin="round"/>
<path d="M7.51559 6H6.85191H6.18823" stroke="#525b75" stroke-width="1.33333" stroke-linecap="round" stroke-linejoin="round"/>
</svg>
