<!DOCTYPE svg PUBLIC "-//W3C//DTD SVG 1.1//EN" "http://www.w3.org/Graphics/SVG/1.1/DTD/svg11.dtd">

<!-- Uploaded to: SVG Repo, www.svgrepo.com, Transformed by: SVG Repo Mixer Tools -->
<svg fill="#525b75" height="17" width="16" version="1.1" id="Layer_1" xmlns="http://www.w3.org/2000/svg" xmlns:xlink="http://www.w3.org/1999/xlink" viewBox="0 0 480 480" xml:space="preserve">

<g id="SVGRepo_bgCarrier" stroke-width="0"/>

<g id="SVGRepo_tracerCarrier" stroke-linecap="round" stroke-linejoin="round"/>

<g id="SVGRepo_iconCarrier"> <g> <g> <g> <path d="M131.34,298.066c0-34.351-27.974-62.297-62.358-62.297c-34.368,0-62.329,27.946-62.329,62.297 c0,22.89,12.405,42.924,30.835,53.767c-19.855,11.578-31.634,35.215-31.634,66.538V470c0,5.523,4.477,10,10,10h105.039 c5.523,0,10-4.477,10-10v-51.629c0-31.001-11.534-54.478-31.02-66.183C118.651,341.434,131.34,321.21,131.34,298.066z M110.893,419.978V460H25.854v-40.022H110.893z M108.954,399.978H27.793c3.574-16.441,13.514-36.055,40.58-36.055 C95.439,363.923,105.379,383.537,108.954,399.978z M68.982,340.41c-23.34,0-42.329-18.995-42.329-42.344 c0-23.323,18.989-42.297,42.329-42.297c23.356,0,42.358,18.974,42.358,42.297C111.34,321.415,92.338,340.41,68.982,340.41z"/> <path d="M444.904,354.608c17.548-11.043,29.242-30.572,29.242-52.791c0-34.35-27.971-62.296-62.352-62.296 c-34.377,0-62.344,27.946-62.344,62.296c0,21.325,10.768,40.175,27.145,51.421c-18.478,12.022-29.365,35.023-29.365,65.132V470 c0,5.523,4.478,10,10,10h105.039c5.522,0,10-4.477,10-10v-51.629C472.269,389.366,462.163,366.961,444.904,354.608z M369.451,301.817c0-23.322,18.995-42.296,42.344-42.296c23.353,0,42.352,18.974,42.352,42.296 c0,22.515-17.668,40.974-39.867,42.265c-1.49-0.095-2.994-0.16-4.529-0.16c-0.647,0-1.281,0.03-1.922,0.046 C386.334,341.962,369.451,323.828,369.451,301.817z M407.328,363.984c1.476,0.105,2.963,0.177,4.467,0.177 c0.758,0,1.508-0.03,2.259-0.057c23.83,1.973,32.899,20.337,36.277,35.874h-81.162 C372.635,384.039,382.089,365.123,407.328,363.984z M452.269,460H367.23v-40.022h85.039V460z"/> <path d="M317.528,338.121l-61.089-25.127v-59.443c0-2.316-0.795-4.441-2.116-6.137h46.638c5.522,0,10-4.477,10-10V178.85 c0-29.68-10.57-52.466-28.572-64.623c16.775-11.185,27.853-30.272,27.853-51.904C310.242,27.958,282.274,0,247.898,0 c-34.373,0-62.336,27.958-62.336,62.322c0,21.875,11.332,41.142,28.423,52.272c-17.688,12.243-28.064,34.864-28.064,64.255 v58.564c0,5.523,4.477,10,10,10h42.634c-1.321,1.695-2.116,3.821-2.116,6.137v59.227l-57.708,22.412 c-5.148,2-7.701,7.794-5.702,12.942c1.538,3.958,5.318,6.383,9.324,6.383c1.204,0,2.428-0.219,3.618-0.681l60.272-23.408 l63.677,26.191c1.244,0.512,2.532,0.754,3.8,0.754c3.934,0,7.663-2.336,9.252-6.198 C325.073,346.065,322.636,340.222,317.528,338.121z M205.562,62.322c0-23.336,18.992-42.322,42.336-42.322 c23.349,0,42.344,18.986,42.344,42.322c0,22.062-16.96,40.228-38.524,42.166c-1.079-0.049-2.168-0.079-3.271-0.079 c-1.321,0-2.622,0.044-3.911,0.114C222.76,102.802,205.562,84.54,205.562,62.322z M244.417,124.567 c1.153,0.063,2.313,0.102,3.481,0.102c1.358,0,2.702-0.059,4.039-0.145c20.33,1.344,30.136,14.448,34.824,27.862h-76.64 C214.769,139.092,224.448,126.106,244.417,124.567z M205.92,227.414V178.85h0.001c0-1.698,0.056-3.91,0.242-6.464h84.555 c0.187,2.554,0.242,4.766,0.242,6.464v48.564H205.92z"/> </g> </g> </g> </g>

</svg>