<svg width="20" height="20" viewBox="0 0 20 20" fill="none" xmlns="http://www.w3.org/2000/svg">
<path d="M16.7029 14.2658L13.6636 11.2266C14.3548 10.2005 14.6958 8.91855 14.5132 7.55253C14.2019 5.22903 12.2976 3.33819 9.97185 3.04374C6.5139 2.60618 3.60616 5.51392 4.04374 8.97187C4.33828 11.2987 6.22937 13.2045 8.55312 13.5142C9.91913 13.6968 11.2014 13.3559 12.2271 12.6647L15.2664 15.7039C15.663 16.1005 16.3061 16.1005 16.7027 15.7039C17.099 15.3068 17.099 14.6619 16.7029 14.2658ZM6.00837 8.28124C6.00837 6.48917 7.4663 5.03124 9.25837 5.03124C11.0504 5.03124 12.5084 6.48917 12.5084 8.28124C12.5084 10.0733 11.0504 11.5312 9.25837 11.5312C7.4663 11.5312 6.00837 10.0738 6.00837 8.28124Z" fill="black"/>
</svg>
